<?xml version="1.0" encoding="UTF-8"?>
<svg id="Layer_1" xmlns="http://www.w3.org/2000/svg" version="1.1" xmlns:xlink="http://www.w3.org/1999/xlink" viewBox="0 0 2000 2000">
  <!-- Generator: Adobe Illustrator 30.4.0, SVG Export Plug-In . SVG Version: 2.1.4 Build 226)  -->
  <defs>
    <style>
      .st0 {
        fill: url(#linear-gradient2);
      }

      .st1 {
        fill: url(#linear-gradient1);
      }

      .st2 {
        fill: url(#linear-gradient);
      }
    </style>
    <linearGradient id="linear-gradient" x1="1615.33" y1="790.78" x2="1615.33" y2="1520.53" gradientTransform="translate(0 2000) scale(1 -1)" gradientUnits="userSpaceOnUse">
      <stop offset="0" stop-color="#0033d1"/>
      <stop offset=".94" stop-color="#05bfff"/>
    </linearGradient>
    <linearGradient id="linear-gradient1" x1="384.67" x2="384.67" xlink:href="#linear-gradient"/>
    <linearGradient id="linear-gradient2" x1="994.78" y1="78.53" x2="1019.43" y2="1921.22" xlink:href="#linear-gradient"/>
  </defs>
  <path class="st2" d="M1720.08,962.47l-246.04,244.63c-4.71,4.55-12.56,1.26-12.56-5.18v-165.81c0-1.88.79-3.77,2.2-5.18l163.3-162.35c12.88-13.5,12.88-34.7.31-47.89l-163.61-162.67c-1.41-1.41-2.2-3.3-2.2-5.18v-165.97c0-6.59,7.85-9.89,12.56-5.18l246.04,244.63c65.48,65,65.48,170.99,0,236.15Z"/>
  <path class="st1" d="M279.92,962.47l246.04,244.63c4.71,4.55,12.56,1.26,12.56-5.18v-165.81c0-1.88-.79-3.77-2.2-5.18l-163.3-162.35c-12.88-13.5-12.88-34.7-.31-47.89l163.61-162.67c1.41-1.41,2.2-3.3,2.2-5.18v-165.97c0-6.59-7.85-9.89-12.56-5.18l-246.04,244.63c-65.48,65-65.48,170.99,0,236.15Z"/>
  <path class="st0" d="M1353.13,426.73v-59.35c0-3.3-1.26-6.44-3.61-8.79l-21.83-21.83-44.91-44.75-72.07-72.07-88.56-88.4c-8.01-8.01-16.64-15.23-25.59-21.35-1.57-1.1-2.98-2.04-4.55-3.14-4.4-2.83-8.95-5.65-13.82-8.01-.63-.47-1.41-.79-2.04-1.1-3.45-1.88-6.91-3.45-10.52-4.87-1.26-.47-2.36-1.1-3.61-1.41-2.2-.94-4.4-1.73-6.44-2.36-1.1-.47-2.04-.79-3.14-1.1-2.36-.94-4.87-1.57-7.38-2.36-1.41-.47-2.83-.94-4.4-1.26-1.57-.47-3.14-.94-4.71-1.1-2.36-.63-4.71-1.1-7.07-1.57-2.2-.47-4.4-.94-6.59-1.1-.63-.16-1.1-.31-1.73-.31-3.3-.47-6.59-.94-9.89-1.26-2.04-.16-4.08-.31-6.12-.47-3.61-.31-7.22-.31-10.68-.31-4.55,0-8.95.16-13.35.47-.94.16-2.04.16-2.98.31-.94,0-1.57.16-2.51.31-2.2.16-4.24.47-6.28.79-2.83.47-5.65.79-8.32,1.26-1.57.31-3.14.63-4.71,1.1-1.41.31-2.98.63-4.55,1.1-8.01,1.88-15.86,4.4-23.55,7.54-2.36.94-4.87,2.04-7.38,3.14-1.26.47-2.36,1.1-3.61,1.57-5.65,2.67-11.31,5.65-16.64,8.95-12.25,7.38-23.71,16.49-33.92,26.69l-79.29,79.29-138.8,138.8c-2.36,2.36-3.61,5.5-3.61,8.79v68.3h0v129.22h0v582.69l-.94-.94v283.1c0,60.14-48.05,113.21-116.82,134.56-.16.16-.47.16-.63.16-2.67.79-5.34,1.57-8.01,2.2-24.49,8.79-42.87,30.15-46.95,56.53-.63,3.77-.94,7.69-.94,11.46s.31,7.85.94,11.46c5.5,34.39,35.17,60.61,71.13,60.61,2.04,0,4.24,0,6.28-.31.79,0,1.57-.16,2.36-.47,8.32-2.04,16.49-4.55,24.65-7.38,48.36-16.17,91.23-42.39,125.61-75.52,53.54-51.5,86.2-119.96,86.2-193.6V418.41c0-3.3,1.26-6.44,3.61-8.79l129.7-129.7h0v1562.47c0,43.65,35.49,79.14,79.14,79.14h0c43.65,0,79.14-35.49,79.14-79.14V279.92l128.75,138.8c2.36,2.36,3.61,5.5,3.61,8.79v993.28c0,73.64,32.66,142.1,86.2,193.6,34.23,33.13,77.25,59.35,125.61,75.52,8.01,2.83,16.33,5.34,24.65,7.38.79.16,1.57.31,2.36.47,2.04.16,4.08.31,6.28.31,35.49,0,65-25.59,70.81-59.51.16-.79.16-1.57.16-2.36v-20.73c0-.79,0-1.57-.16-2.36-4.55-25.75-22.77-46.63-46.79-55.27-2.67-.63-5.34-1.41-8.01-2.2-.16-.16-.47-.16-.63-.16-68.77-21.35-116.82-74.58-116.82-134.56v-12.72h0v-67.67h0v-202.71h0l-1.73-711.13M1353.29,564.75v573.74h0v-573.74h0ZM1353.13,1352.34h0v55.9h0v-55.9Z"/>
</svg>